<svg width="1329" height="639" viewBox="0 0 1329 639" fill="none" xmlns="http://www.w3.org/2000/svg">
<path d="M211.67 274.79C183 248 176.18 248.43 168.82 210C159.43 160.92 109.62 141.1 84.51 169.56C59.4 198.02 89.59 252.56 99.29 264.43C106.7 273.52 103.36 318.36 115.47 361.63" stroke="#107BE9" stroke-width="6" stroke-linecap="round" stroke-linejoin="round"/>
<path d="M220.56 409.91C206.56 394.78 190.74 382.84 173.06 376.91C109.15 355.47 108.84 369.34 81.6499 337.31C54.4599 305.28 10.1499 311.2 3.79987 342.31C-2.55013 373.42 41.9499 400.87 53.9199 405.6C65.8899 410.33 89.9999 467.44 134 491.51C178 515.58 199.77 468.22 216.51 501.29" stroke="#107BE9" stroke-width="6" stroke-linecap="round" stroke-linejoin="round"/>
<path d="M322.2 104.74C316.31 100.3 308.28 97.33 297.65 96.32C244.84 91.32 233.94 144.76 232.23 190.04C230.52 235.32 238.95 251.59 213.17 275.69C187.39 299.79 229.34 332.4 225.77 356.29C223 374.93 207.3 418 246.19 503.21" stroke="#107BE9" stroke-width="6" stroke-linecap="round" stroke-linejoin="round"/>
<path d="M322.2 503.21V349.94C287.72 385.93 277 451 273.25 503.21H322.2Z" stroke="#107BE9" stroke-width="6" stroke-linecap="round" stroke-linejoin="round"/>
<path d="M321.29 503.21H200.37C198.254 503.174 196.156 503.616 194.234 504.503C192.313 505.39 190.616 506.7 189.27 508.334C187.924 509.968 186.965 511.884 186.463 513.94C185.961 515.997 185.929 518.14 186.37 520.21L212.14 635.56" stroke="#2E186A" stroke-width="6" stroke-linecap="round" stroke-linejoin="round"/>
<path d="M1085.53 3H322.2V634.36H1085.53V3Z" stroke="#2E186A" stroke-width="6" stroke-linecap="round" stroke-linejoin="round"/>
<path d="M799.06 474.86H756.24V541.63H799.06V474.86Z" stroke="#2E186A" stroke-width="6" stroke-linecap="round" stroke-linejoin="round"/>
<path d="M866.2 446.76H823.38V541.64H866.2V446.76Z" stroke="#2E186A" stroke-width="6" stroke-linecap="round" stroke-linejoin="round"/>
<path d="M933.339 402.33H890.52V541.64H933.339V402.33Z" stroke="#2E186A" stroke-width="6" stroke-linecap="round" stroke-linejoin="round"/>
<path d="M1000.48 363.96H957.66V541.64H1000.48V363.96Z" fill="#107BE9"/>
<path d="M1014.94 272.77C1014.61 272.485 1014.22 272.275 1013.8 272.154C1013.38 272.033 1012.93 272.005 1012.5 272.07L984.5 276.54C984.111 276.606 983.739 276.747 983.405 276.957C983.071 277.166 982.782 277.439 982.553 277.761C982.325 278.082 982.162 278.445 982.074 278.829C981.986 279.213 981.974 279.611 982.04 280C982.106 280.389 982.247 280.761 982.456 281.095C982.666 281.429 982.939 281.718 983.26 281.947C983.582 282.175 983.945 282.338 984.329 282.426C984.713 282.514 985.111 282.526 985.5 282.46L1003.77 279.55L949.1 343L926.76 321.55C926.466 321.268 926.117 321.049 925.735 320.907C925.354 320.764 924.947 320.7 924.54 320.72C924.136 320.735 923.739 320.831 923.373 321.002C923.007 321.174 922.679 321.418 922.41 321.72L849.24 406.72L828 390.83C827.43 390.403 826.727 390.193 826.016 390.237C825.305 390.281 824.633 390.576 824.12 391.07L758.39 454.07C757.841 454.626 757.532 455.374 757.526 456.155C757.52 456.936 757.82 457.689 758.36 458.252C758.9 458.816 759.639 459.147 760.42 459.175C761.2 459.202 761.961 458.924 762.54 458.4L826.44 397.14L847.89 413.21C848.498 413.666 849.256 413.874 850.012 413.792C850.767 413.71 851.463 413.345 851.96 412.77L924.89 328.03L947.23 349.48C947.524 349.762 947.873 349.981 948.254 350.124C948.636 350.266 949.043 350.33 949.45 350.31C949.854 350.296 950.251 350.199 950.617 350.028C950.983 349.856 951.31 349.612 951.58 349.31L1009.87 281.59L1009.49 305.29C1009.48 305.688 1009.56 306.084 1009.7 306.453C1009.85 306.823 1010.07 307.16 1010.35 307.444C1010.63 307.728 1010.96 307.953 1011.33 308.107C1011.7 308.261 1012.09 308.34 1012.49 308.34C1013.28 308.34 1014.03 308.031 1014.59 307.479C1015.15 306.927 1015.48 306.177 1015.49 305.39L1015.97 275.1C1015.98 274.66 1015.89 274.223 1015.71 273.82C1015.54 273.418 1015.27 273.059 1014.94 272.77V272.77Z" fill="#107BE9"/>
<path d="M399.26 472.49H583.27" stroke="#2E186A" stroke-width="6" stroke-linecap="round" stroke-linejoin="round"/>
<path d="M399.26 500.49H534.7" stroke="#2E186A" stroke-width="6" stroke-linecap="round" stroke-linejoin="round"/>
<path d="M395.26 531.92H491.27" stroke="#2E186A" stroke-width="6" stroke-linecap="round" stroke-linejoin="round"/>
<path d="M604.42 472.49H683.85" stroke="#2E186A" stroke-width="6" stroke-linecap="round" stroke-linejoin="round"/>
<path d="M486.49 411.38L507.7 431.33V391.02L486.49 411.38Z" fill="#107BE9"/>
<path d="M455.979 432.37L477.78 411.43L455.979 390.92V432.37Z" fill="#107BE9"/>
<path d="M564.08 383.98H515.08L539.83 407.27L564.08 383.98Z" fill="#107BE9"/>
<path d="M482.16 415.55L457.31 439.41H507.54L482.16 415.55Z" fill="#107BE9"/>
<path d="M513.7 432.37L535.5 411.43L513.7 390.92V432.37Z" fill="#107BE9"/>
<path d="M395.26 388.1V435.25L420.07 411.43L395.26 388.1Z" fill="#107BE9"/>
<path d="M424.44 415.55L399.59 439.41H449.82L424.44 415.55Z" fill="#107BE9"/>
<path d="M448.65 383.98H399.64L424.4 407.27L448.65 383.98Z" fill="#107BE9"/>
<path d="M565.41 431.33V391.02L544.21 411.38L565.41 431.33Z" fill="#107BE9"/>
<path d="M428.78 411.38L449.98 431.33V391.02L428.78 411.38Z" fill="#107BE9"/>
<path d="M539.88 415.55L515 439.41H565.22L539.88 415.55Z" fill="#107BE9"/>
<path d="M506.37 383.98H457.36L482.12 407.27L506.37 383.98Z" fill="#107BE9"/>
<path d="M623.13 383.98H571.41V439.41H623.13V383.98Z" fill="#107BE9"/>
<path d="M683.85 383.98H629.13V439.41H683.85V383.98Z" fill="#107BE9"/>
<path d="M565.25 439.41L565.43 439.54C565.43 439.54 565.43 439.46 565.43 439.41H565.25Z" fill="#107BE9"/>
<path d="M972.68 180.5H941.68V211.5H972.68V180.5Z" stroke="#2E186A" stroke-width="6" stroke-linecap="round" stroke-linejoin="round"/>
<path d="M978.86 124.32H860.32V160.04H978.86V124.32Z" stroke="#2E186A" stroke-width="6" stroke-linecap="round" stroke-linejoin="round"/>
<path d="M860.32 211.53H920.62" stroke="#2E186A" stroke-width="6" stroke-linecap="round" stroke-linejoin="round"/>
<path d="M860.32 196.88H920.62" stroke="#2E186A" stroke-width="6" stroke-linecap="round" stroke-linejoin="round"/>
<path d="M860.32 182.22H920.62" stroke="#2E186A" stroke-width="6" stroke-linecap="round" stroke-linejoin="round"/>
<path d="M763.12 295.31H927.82" stroke="#2E186A" stroke-width="6" stroke-linecap="round" stroke-linejoin="round"/>
<path d="M763.12 309.47H860.32" stroke="#2E186A" stroke-width="6" stroke-linecap="round" stroke-linejoin="round"/>
<path d="M594.159 210L707.159 152.67C716.165 170.438 720.852 190.08 720.839 210C720.839 279.49 663.659 336.68 594.159 336.68C575.11 336.674 556.307 332.374 539.148 324.1C521.989 315.826 506.916 303.791 495.049 288.89L594.159 210Z" fill="#107BE9"/>
<path d="M691.26 113.23H795.9" stroke="#2E186A" stroke-width="6" stroke-linecap="round" stroke-linejoin="round"/>
<path d="M795.899 127.34H740.109" stroke="#2E186A" stroke-width="6" stroke-linecap="round" stroke-linejoin="round"/>
<path d="M795.899 141.55H758.819" stroke="#2E186A" stroke-width="6" stroke-linecap="round" stroke-linejoin="round"/>
<path d="M663.91 225.51H799.05" stroke="#2E186A" stroke-width="6" stroke-linecap="round" stroke-linejoin="round"/>
<path d="M799.05 236.6H773.76" stroke="#2E186A" stroke-width="6" stroke-linecap="round" stroke-linejoin="round"/>
<path d="M517.35 101.55H436.79" stroke="#2E186A" stroke-width="6" stroke-linecap="round" stroke-linejoin="round"/>
<path d="M436.79 112.98H452.96" stroke="#2E186A" stroke-width="6" stroke-linecap="round" stroke-linejoin="round"/>
<path d="M475 291.23L570.48 215.5L448.6 216.86C448.86 243.9 458.152 270.078 475 291.23V291.23Z" stroke="#107BE9" stroke-width="6" stroke-linecap="round" stroke-linejoin="round"/>
<path d="M461.999 160.62C456.536 174.677 453.742 189.629 453.759 204.71C453.759 205.25 453.759 205.79 453.759 206.34L575.539 204.71L461.999 160.62Z" stroke="#107BE9" stroke-width="6" stroke-linecap="round" stroke-linejoin="round"/>
<path d="M658.869 87.42L598.799 193.11L707.799 138.97C696.95 117.323 679.921 99.3826 658.869 87.42V87.42Z" stroke="#107BE9" stroke-width="6" stroke-linecap="round" stroke-linejoin="round"/>
<path d="M644.79 90.28C626.586 79.8396 605.984 74.3057 585 74.22H583C558.72 74.464 535.067 81.9555 515.075 95.7336C495.082 109.512 479.661 128.948 470.79 151.55L584.27 196L644.79 90.28Z" fill="#2E186A"/>
<path d="M471.35 237.05H390.79" stroke="#2E186A" stroke-width="6" stroke-linecap="round" stroke-linejoin="round"/>
<path d="M390.79 248.48H419.9" stroke="#2E186A" stroke-width="6" stroke-linecap="round" stroke-linejoin="round"/>
<path d="M1001.18 583.08C994.142 583.527 987.132 584.345 980.18 585.53C966.58 587.91 943.47 591.87 941.18 595.38C937.5 600.95 945.73 604.66 954.51 604.38" stroke="#2E186A" stroke-width="6" stroke-linecap="round" stroke-linejoin="round"/>
<path d="M965.93 613.4C952.57 616.74 946.17 616.12 949.61 609.11C951.99 604.26 984.14 587.63 990.44 585.76C996.74 583.89 1051.7 575.96 1051.7 575.96L1065.79 634.36H986.2C966.94 635.59 972.49 624.65 980.36 621.82C988.23 618.99 1002.75 612.21 1004.92 612.76C1004.92 612.76 984.18 618.68 974.92 624.45C968.34 627.09 960.92 622.52 960.18 620.45C959.44 618.38 965.53 612.64 975.61 607.5C983.13 603.842 990.86 600.633 998.76 597.89" stroke="#2E186A" stroke-width="6" stroke-linecap="round" stroke-linejoin="round"/>
<path d="M1292.6 418.26C1293.04 405.442 1289.82 392.763 1283.32 381.708C1276.82 370.652 1267.31 361.676 1255.89 355.83L1218.14 335.57L1214 354.14C1211.84 363.853 1205.92 372.313 1197.53 377.659C1189.14 383.005 1178.96 384.801 1169.25 382.65L1164.38 381.57C1154.67 379.418 1146.2 373.496 1140.85 365.106C1135.51 356.716 1133.71 346.545 1135.86 336.83L1142.13 308.54C1134.94 303.54 1129.21 296.71 1126.49 287.89C1126.31 287.32 1126.16 286.73 1126 286.14L1088.41 266L1088.27 557.73L1190.27 536.81L1185.35 468.32C1185.32 467.926 1185.37 467.53 1185.5 467.156C1185.62 466.781 1185.82 466.434 1186.08 466.136C1186.33 465.837 1186.65 465.592 1187 465.416C1187.36 465.239 1187.74 465.133 1188.13 465.105C1188.53 465.077 1188.92 465.126 1189.3 465.251C1189.67 465.376 1190.02 465.573 1190.32 465.832C1190.62 466.09 1190.86 466.405 1191.04 466.758C1191.22 467.111 1191.32 467.496 1191.35 467.89L1196.46 539.01C1196.51 539.736 1196.3 540.455 1195.86 541.034C1195.42 541.614 1194.78 542.014 1194.07 542.16L1088.31 563.86V564.63L1030.39 575.18C1041.75 577.34 1054.39 633.84 1054.39 633.84H1259.77C1264.53 633.841 1269.24 632.894 1273.63 631.055C1278.02 629.216 1282 626.522 1285.34 623.129C1288.68 619.736 1291.3 615.713 1293.07 611.294C1294.84 606.875 1295.71 602.149 1295.63 597.39L1292.6 418.26Z" fill="#2E186A"/>
<path d="M1226.87 293.14L1214.03 354.14C1211.87 363.853 1205.95 372.313 1197.56 377.659C1189.17 383.005 1178.99 384.801 1169.28 382.65L1164.41 381.57C1154.7 379.418 1146.23 373.496 1140.89 365.106C1135.54 356.716 1133.74 346.545 1135.89 336.83L1142.16 308.54" stroke="#2E186A" stroke-width="6" stroke-linecap="round" stroke-linejoin="round"/>
<path d="M1255 244C1255 244 1287 181.7 1224.26 148.4C1218.42 145.29 1178.05 124.89 1158.67 157.55C1145.67 179.37 1136.3 204.55 1130.38 224.63C1130.38 224.74 1118.62 262.3 1126.52 287.94C1134.42 313.58 1167.76 322.45 1188.44 317.94C1209.12 313.43 1214.05 309.16 1222.9 298.64C1231.75 288.12 1254.9 244.12 1254.9 244.12L1255 244Z" stroke="#2E186A" stroke-width="6" stroke-linecap="round" stroke-linejoin="round"/>
<path d="M1130.38 224.58C1136.3 204.58 1145.72 179.32 1158.67 157.5C1159.27 156.5 1159.88 155.5 1160.52 154.63C1149.97 146.42 1132.93 163.38 1121.16 198.23C1115.08 216.23 1098.42 225.32 1098.42 225.32C1111.14 236.46 1122.6 231.62 1130.16 225.32C1130.29 224.85 1130.37 224.59 1130.38 224.58Z" fill="#2E186A"/>
<path d="M1160.03 213.02L1146.53 246.97L1157.67 251.05" stroke="#2E186A" stroke-width="6" stroke-linecap="round" stroke-linejoin="round"/>
<path d="M1150.95 210.73C1152.14 207.964 1151.65 205.098 1149.86 204.329C1148.06 203.561 1145.65 205.18 1144.46 207.946C1143.28 210.712 1143.77 213.578 1145.56 214.347C1147.35 215.115 1149.76 213.496 1150.95 210.73Z" fill="#2E186A"/>
<path d="M1181.95 224.02C1182.6 221.081 1181.58 218.357 1179.68 217.937C1177.78 217.517 1175.71 219.559 1175.06 222.498C1174.41 225.437 1175.43 228.16 1177.33 228.581C1179.23 229.001 1181.3 226.959 1181.95 224.02Z" fill="#2E186A"/>
<path d="M1205.52 213C1204.63 210.248 1203.02 207.786 1200.85 205.871C1198.68 203.955 1196.04 202.657 1193.2 202.11" stroke="#2E186A" stroke-width="6" stroke-linecap="round" stroke-linejoin="round"/>
<path d="M1163.7 188.09C1163.7 188.09 1153.89 179.09 1146.53 184.39" stroke="#2E186A" stroke-width="6" stroke-linecap="round" stroke-linejoin="round"/>
<path d="M1322 225.53L1288.14 208.35C1292.39 183.11 1289.78 144.1 1242.44 122.11C1168.44 87.74 1141.44 161.83 1141.44 161.83L1310.94 247.36C1312.38 248.136 1313.96 248.616 1315.58 248.772C1317.21 248.928 1318.85 248.756 1320.41 248.268C1321.97 247.779 1323.42 246.984 1324.66 245.928C1325.91 244.872 1326.93 243.577 1327.67 242.119C1328.41 240.662 1328.85 239.071 1328.96 237.441C1329.08 235.811 1328.86 234.175 1328.33 232.629C1327.81 231.083 1326.97 229.658 1325.88 228.439C1324.8 227.22 1323.48 226.231 1322 225.53V225.53Z" fill="#107BE9"/>
<path d="M1174.88 268.44C1174.88 268.44 1166.24 278.23 1151.02 270.38" stroke="#2E186A" stroke-width="6" stroke-linecap="round" stroke-linejoin="round"/>
<path d="M1284.11 233.85L1212.61 197.76C1204.31 223.62 1193.89 275.6 1238.19 289.22C1238.19 289.22 1272.81 300.7 1282.76 289.32C1282.76 289.32 1259 271.89 1264.39 257.65C1264.39 257.65 1288.72 293.65 1317.24 274.52C1317.24 274.52 1283.48 263.7 1284.11 233.85Z" fill="#2E186A"/>
<path d="M3 634L1317 634" stroke="#2E186A" stroke-width="6" stroke-linecap="round" stroke-linejoin="round"/>
</svg>
